<?xml version="1.0" encoding="iso-8859-1"?>
<!-- Uploaded to: SVG Repo, www.svgrepo.com, Generator: SVG Repo Mixer Tools -->
<svg version="1.1" id="Layer_1" xmlns="http://www.w3.org/2000/svg" xmlns:xlink="http://www.w3.org/1999/xlink" 
	 viewBox="0 0 511.989 511.989" xml:space="preserve">
<path style="fill:#656D78;" d="M408.414,235.213c-23.062-7.718-39.578-24.21-49.093-49.029c-7.406-19.352-7.609-36.733-7.609-36.851
	c0-39.89-15.546-77.39-43.749-105.592C279.761,15.531,242.262,0,202.372,0S124.983,15.531,96.781,43.741
	C68.579,71.943,53.04,109.443,53.04,149.333v362.655h405.326V351.992c0-8.797,0.172-17.062,0.328-24.344
	C459.693,280.821,460.287,252.556,408.414,235.213z"/>
<path style="opacity:0.1;fill:#FFFFFF;enable-background:new    ;" d="M408.414,235.213c-23.062-7.718-39.578-24.21-49.093-49.029
	c-7.406-19.352-7.609-36.733-7.609-36.851c0-39.89-15.546-77.39-43.749-105.592C279.761,15.531,242.262,0,202.372,0
	c-3.578,0-7.133,0.133-10.664,0.375c35.866,2.516,69.249,17.688,94.927,43.366c28.203,28.202,43.734,65.702,43.734,105.592
	c0,0.117,0.219,17.499,7.625,36.851c9.499,24.819,26.015,41.312,49.092,49.029c51.874,17.344,51.28,45.608,50.28,92.436
	c-0.156,7.281-0.328,15.547-0.328,24.344v159.996h21.327V351.992c0-8.797,0.172-17.062,0.328-24.344
	C459.693,280.821,460.287,252.556,408.414,235.213z"/>
<rect x="53.044" y="437.334" style="fill:#434A54;" width="405.33" height="74.65"/>
<rect x="85.044" y="437.334" style="fill:#E6E9ED;" width="341.33" height="74.65"/>
<g>
	<path style="fill:#434A54;" d="M383.711,479.988c5.891,0,10.656-4.781,10.656-10.656v-31.998h-21.328v31.998
		C373.039,475.207,377.82,479.988,383.711,479.988z"/>
	<path style="fill:#434A54;" d="M341.041,479.988c5.89,0,10.671-4.781,10.671-10.656v-31.998h-21.343v31.998
		C330.369,475.207,335.15,479.988,341.041,479.988z"/>
	<path style="fill:#434A54;" d="M298.369,479.988c5.891,0,10.672-4.781,10.672-10.656v-31.998h-21.328v31.998
		C287.713,475.207,292.478,479.988,298.369,479.988z"/>
	<path style="fill:#434A54;" d="M255.706,479.988c5.891,0,10.664-4.781,10.664-10.656v-31.998h-21.335v31.998
		C245.035,475.207,249.816,479.988,255.706,479.988z"/>
	<path style="fill:#434A54;" d="M213.036,479.988c5.891,0,10.672-4.781,10.672-10.656v-31.998h-21.335v31.998
		C202.372,475.207,207.145,479.988,213.036,479.988z"/>
	<path style="fill:#434A54;" d="M170.372,479.988c5.891,0,10.664-4.781,10.664-10.656v-31.998h-21.328v31.998
		C159.709,475.207,164.482,479.988,170.372,479.988z"/>
	<path style="fill:#434A54;" d="M127.71,479.988c5.89,0,10.664-4.781,10.664-10.656v-31.998h-21.335v31.998
		C117.038,475.207,121.819,479.988,127.71,479.988z"/>
</g>
</svg>